<?xml version="1.0" encoding="iso-8859-1"?>
<!-- Generator: Adobe Illustrator 18.1.1, SVG Export Plug-In . SVG Version: 6.00 Build 0)  -->
<svg xmlns="http://www.w3.org/2000/svg" xmlns:xlink="http://www.w3.org/1999/xlink" version="1.1" id="Capa_1" x="0px" y="0px" viewBox="0 0 49.99 49.99" style="enable-background:new 0 0 49.99 49.99;" xml:space="preserve" width="512px" height="512px">
<g>
	<path d="M3.435,45.009c0,2.746,2.251,4.981,5.017,4.981h32.326c2.768,0,5.019-2.234,5.019-4.981V30.712   c0-2.746-2.252-4.98-5.019-4.98H8.453c-2.767,0-5.017,2.234-5.017,4.98L3.435,45.009L3.435,45.009z M15.615,33.048v-5.239h14.417   v5.239H15.615z M43.72,34.673v5.709c-0.047-0.005-0.088-0.021-0.137-0.021H5.755c-0.087,0-0.164,0.022-0.244,0.039v-5.727H43.72z    M40.778,47.912H8.452c-1.622,0-2.941-1.303-2.941-2.903v-3.062c0.08,0.017,0.157,0.039,0.244,0.039h37.829   c0.049,0,0.09-0.017,0.137-0.021v3.045C43.72,46.609,42.4,47.912,40.778,47.912z M43.72,30.712v2.336H31.032v-5.239h9.746   C42.4,27.808,43.72,29.111,43.72,30.712z M8.452,27.808h6.163v5.239H5.51v-2.336C5.51,29.111,6.83,27.808,8.452,27.808z    M4.016,6.907C3.684,7.368,3.551,7.929,3.642,8.489l1.081,6.659v6.371c0,1.172,0.953,2.125,2.125,2.125H44.43   c1.172,0,2.125-0.953,2.125-2.125v-7.006H10.251l35.681-5.792l0.123-0.02l-1.122-6.916C44.765,0.751,43.883,0,42.836,0   c-0.113,0-0.229,0.01-0.342,0.028L5.398,6.051C4.84,6.142,4.348,6.446,4.016,6.907z M44.304,16.764v4.631h-2.96l-2.394-4.631   H44.304z M33.72,16.764l2.183,4.631H29.26l-2.395-4.631C26.865,16.764,33.72,16.764,33.72,16.764z M21.636,16.764l2.183,4.631   H17.51l-2.395-4.631H21.636z M6.973,21.394v-4.631h2.913l2.183,4.631C12.069,21.394,6.973,21.394,6.973,21.394z M39.067,2.865   l3.664-0.595l0.742,4.57l-5.615,0.911L39.067,2.865z M27.666,4.716l6.305-1.023l-1.41,4.92l-6.104,0.99L27.666,4.716z M16.78,6.483   l5.806-0.942l-1.41,4.92l-5.604,0.91L16.78,6.483z M11.74,7.301l-1.41,4.921l-3.705,0.602L5.883,8.253L11.74,7.301z" fill="#dedede"/>
</g>
<g>
</g>
<g>
</g>
<g>
</g>
<g>
</g>
<g>
</g>
<g>
</g>
<g>
</g>
<g>
</g>
<g>
</g>
<g>
</g>
<g>
</g>
<g>
</g>
<g>
</g>
<g>
</g>
<g>
</g>
</svg>
