<?xml version="1.0"?>
<svg xmlns="http://www.w3.org/2000/svg" height="512px" viewBox="-18 -39 597.33306 597" width="512px"><path d="m0 18.832031h20v80h-20zm0 0" fill="#FFFFFF"/><path d="m80 498.824219h39.996094v20h-39.996094zm0 0" fill="#FFFFFF"/><path d="m539.992188 18.832031h20.007812v80h-20.007812zm0 0" fill="#FFFFFF"/><path d="m100 398.824219h99.996094v40h-99.996094zm0 0" fill="#FFFFFF"/><path d="m0 198.828125h20v80h-20zm0 0" fill="#FFFFFF"/><path d="m0 378.824219h20v80h-20zm0 0" fill="#FFFFFF"/><path d="m299.996094 58.832031c0 11.042969-8.957032 20-20 20-11.046875 0-20-8.957031-20-20 0-11.046875 8.953125-20 20-20 11.042968 0 20 8.953125 20 20zm0 0" fill="#FFFFFF"/><path d="m100 38.832031h99.996094v40h-99.996094zm0 0" fill="#FFFFFF"/><path d="m80 138.828125h39.996094v20h-39.996094zm0 0" fill="#FFFFFF"/><path d="m40 178.828125v120h329.992188v-120zm179.996094 90c0 5.523437-4.476563 10-10 10h-119.996094c-5.523438 0-10-4.476563-10-10v-60c0-5.523437 4.476562-10 10-10h119.996094c5.523437 0 10 4.476563 10 10zm60 10c-22.089844 0-40-17.910156-40-40s17.910156-40 40-40 40 17.910156 40 40-17.910156 40-40 40zm0 0" fill="#FFFFFF"/><path d="m299.996094 238.828125c0 11.042969-8.957032 20-20 20-11.046875 0-20-8.957031-20-20s8.953125-20 20-20c11.042968 0 20 8.957031 20 20zm0 0" fill="#FFFFFF"/><path d="m100 218.828125h99.996094v40h-99.996094zm0 0" fill="#FFFFFF"/><path d="m80 318.828125h39.996094v20h-39.996094zm0 0" fill="#FFFFFF"/><path d="m439.992188 138.828125h40v20h-40zm0 0" fill="#FFFFFF"/><path d="m299.695312 397.125-6.199218 6.902344c-3.6875-3.371094-8.507813-5.226563-13.5-5.203125-11.046875 0-20 8.957031-20 20 0 11.046875 8.953125 20 20 20v20c-22.089844 0-40-17.910157-40-40 0-22.089844 17.910156-40 40-40 6.875-.019531 13.636718 1.773437 19.597656 5.203125l-.296875-25.203125h-259.296875v120h260.691406zm-79.699218 51.699219c0 5.523437-4.476563 10-10 10h-119.996094c-5.523438 0-10-4.476563-10-10v-60c0-5.519531 4.476562-10 10-10h119.996094c5.523437 0 10 4.480469 10 10zm0 0" fill="#FFFFFF"/><path d="m429.992188 518.824219v-78.199219l-48.359376 8.058594c-3.144531.523437-6.351562-.484375-8.632812-2.710938-2.277344-2.230468-3.359375-5.410156-2.910156-8.570312l8.222656-57.515625c-33.632812 5.714843-58.253906 34.820312-58.316406 68.9375v70h29.996094v-70h20v70zm0 0" fill="#FFFFFF"/><path d="m559.988281 518.824219v-70c-.058593-34.117188-24.683593-63.226563-58.316406-68.9375l8.222656 57.515625c.449219 3.160156-.632812 6.339844-2.910156 8.570312-2.28125 2.226563-5.488281 3.234375-8.632813 2.710938l-48.359374-8.058594v78.199219h60v-70h20v70zm0 0" fill="#FFFFFF"/><path d="m391.832031 426.714844 29.3125-4.882813-24.433593-29.324219zm0 0" fill="#FFFFFF"/><path d="m483.273438 392.507812-24.433594 29.324219 29.3125 4.882813zm0 0" fill="#FFFFFF"/><path d="m468.628906 378.824219h-57.273437l28.636719 34.371093zm0 0" fill="#FFFFFF"/><path d="m489.992188 255.027344c-12.164063-4.851563-23.007813-12.496094-31.671876-22.316406-21.429687 11.21875-44.523437 18.929687-68.394531 22.824218l.066407 33.292969c0 27.609375 22.386718 50 50 50 27.613281 0 50-22.390625 50-50zm0 0" fill="#FFFFFF"/><path d="m439.992188 188.828125c-28.5.035156-53.0625 20.082031-58.796876 48 26-4.820313 60.796876-14.160156 71.726563-25.089844 1.878906-1.871093 4.417969-2.914062 7.070313-2.910156h1c2.980468.296875 5.667968 1.910156 7.328124 4.398437 7.628907 10.738282 18.242188 19.003907 30.519532 23.769532-5.675782-28-30.273438-48.136719-58.847656-48.167969zm0 0" fill="#FFFFFF"/><path d="m359.992188 38.832031h20v40h-20zm0 0" fill="#FFFFFF"/><path d="m439.992188 38.832031h20v40h-20zm0 0" fill="#FFFFFF"/><path d="m40-1.167969v120h479.992188v-120zm179.996094 90c0 5.519531-4.476563 10-10 10h-119.996094c-5.523438 0-10-4.480469-10-10v-60c0-5.523437 4.476562-10 10-10h119.996094c5.523437 0 10 4.476563 10 10zm60 10c-22.089844 0-40-17.910156-40-40 0-22.089843 17.910156-40 40-40s40 17.910157 40 40c0 22.089844-17.910156 40-40 40zm119.996094-10c0 5.519531-4.476563 10-10 10h-40c-5.519532 0-10-4.480469-10-10v-60c0-5.523437 4.480468-10 10-10h40c5.523437 0 10 4.476563 10 10zm80 0c0 5.519531-4.476563 10-10 10h-40c-5.523438 0-10-4.480469-10-10v-60c0-5.523437 4.476562-10 10-10h40c5.523437 0 10 4.476563 10 10zm0 0" fill="#FFFFFF"/></svg>
