<svg height="511pt" viewBox="-72 0 511 511.99995" width="511pt" xmlns="http://www.w3.org/2000/svg"><path d="m125.070312 512h-91.429687c-18.273437 0-33.140625-14.867188-33.140625-33.140625v-436.808594c0-18.273437 14.867188-33.140625 33.140625-33.140625h91.429687c18.269532 0 33.136719 14.867188 33.136719 33.140625v436.808594c0 18.273437-14.867187 33.140625-33.136719 33.140625zm-91.429687-483.085938c-7.246094 0-13.140625 5.894532-13.140625 13.140626v436.804687c0 7.246094 5.894531 13.140625 13.140625 13.140625h91.429687c7.242188 0 13.136719-5.894531 13.136719-13.140625v-436.808594c0-7.242187-5.894531-13.140625-13.136719-13.140625h-91.429687zm0 0"/><path d="m79.355469 452.695312c-23.707031 0-42.992188-19.289062-42.992188-42.992187 0-23.707031 19.285157-42.992187 42.992188-42.992187s42.992187 19.285156 42.992187 42.992187c0 23.703125-19.285156 42.992187-42.992187 42.992187zm0-65.984374c-12.679688 0-22.992188 10.3125-22.992188 22.992187 0 12.675781 10.3125 22.992187 22.992188 22.992187 12.675781 0 22.992187-10.3125 22.992187-22.992187s-10.316406-22.992187-22.992187-22.992187zm0 0"/><path d="m107.328125 336.425781h-54.511719c-11.246094 0-20.398437-9.148437-20.398437-20.398437v-56.605469c0-5.523437 4.476562-10 10-10 5.523437 0 10 4.476563 10 10v56.605469c0 .222656.179687.398437.398437.398437h54.511719c.21875 0 .398437-.175781.398437-.398437v-218.921875c0-.222657-.179687-.402344-.398437-.402344h-54.511719c-.21875 0-.398437.179687-.398437.402344v81.800781c0 5.523438-4.476563 10-10 10-5.523438 0-10-4.476562-10-10v-81.800781c0-11.25 9.152343-20.402344 20.398437-20.402344h54.511719c11.246094 0 20.398437 9.152344 20.398437 20.402344v218.921875c0 11.25-9.152343 20.398437-20.398437 20.398437zm0 0"/><path d="m42.417969 229.1875c-5.523438 0-10-4.476562-10-10s4.476562-10.011719 10-10.011719c5.519531 0 10 4.464844 10 9.988281v.023438c0 5.523438-4.476563 10-10 10zm0 0"/><path d="m242.800781 510.847656c-16.535156 0-30.875-12.398437-32.882812-29.214844l-51.75-433.734374c-2.164063-18.140626 10.835937-34.664063 28.980469-36.832032l90.785156-10.832031c18.132812-2.164063 34.664062 10.835937 36.832031 28.980469l51.75 433.734375c1.046875 8.789062-1.390625 17.460937-6.863281 24.417969-5.472656 6.957031-13.328125 11.363281-22.117188 12.414062l-90.785156 10.832031c-1.324219.15625-2.644531.234375-3.949219.234375zm39.066407-490.847656c-.515626 0-1.039063.03125-1.5625.09375l-90.785157 10.832031c-7.195312.859375-12.351562 7.410157-11.492187 14.605469l51.75 433.730469c.859375 7.195312 7.410156 12.355469 14.605468 11.492187l90.785157-10.832031c3.484375-.417969 6.597656-2.164063 8.769531-4.921875 2.167969-2.757812 3.136719-6.199219 2.71875-9.683594l-51.75-433.730468c-.792969-6.667969-6.480469-11.585938-13.039062-11.585938zm54.484374 469.851562h.007813zm0 0"/><path d="m279.9375 446.617188c-9.589844 0-18.84375-3.1875-26.496094-9.210938-9.027344-7.101562-14.746094-17.292969-16.105468-28.691406-1.359376-11.402344 1.800781-22.65625 8.902343-31.679688 7.097657-9.023437 17.289063-14.746094 28.691407-16.105468 11.402343-1.359376 22.652343 1.800781 31.679687 8.902343 9.023437 7.101563 14.742187 17.292969 16.105469 28.695313 1.359375 11.402344-1.800782 22.652344-8.902344 31.679687-7.101562 9.023438-17.292969 14.742188-28.695312 16.101563-1.734376.207031-3.460938.308594-5.179688.308594zm.132812-65.992188c-.917968 0-1.84375.054688-2.769531.164062-6.097656.726563-11.550781 3.785157-15.347656 8.613282s-5.488281 10.84375-4.757813 16.941406c.726563 6.097656 3.785157 11.546875 8.609376 15.34375 4.828124 3.800781 10.84375 5.492188 16.941406 4.761719 6.097656-.726563 11.546875-3.785157 15.347656-8.613281 3.796875-4.824219 5.488281-10.839844 4.757812-16.941407-.726562-6.097656-3.785156-11.546875-8.609374-15.34375-4.09375-3.222656-9.042969-4.925781-14.171876-4.925781zm0 0"/><path d="m242.535156 334.148438c-4.550781 0-8.941406-1.511719-12.574218-4.367188-4.28125-3.371094-6.996094-8.207031-7.640626-13.617188l-25.9375-217.378906c-.644531-5.410156.855469-10.75 4.226563-15.03125 3.367187-4.28125 8.203125-6.996094 13.613281-7.644531l54.125-6.457031c5.410156-.644532 10.75.855468 15.03125 4.222656 4.28125 3.371094 6.996094 8.207031 7.640625 13.617188l25.9375 217.382812c.644531 5.410156-.855469 10.746094-4.222656 15.03125-3.371094 4.28125-8.203125 6.992188-13.613281 7.640625-.003906 0-.003906 0-.003906 0l-54.125 6.457031c-.824219.097656-1.644532.144532-2.457032.144532zm55.398438-16.53125h.011718zm-27.167969-228.105469c-.015625 0-.03125 0-.046875 0l-54.128906 6.460937c-.214844.023438-.375.222656-.347656.441406l25.9375 217.382813c.003906.050781.019531.164063.148437.265625s.242187.089844.292969.082031l54.128906-6.457031c.21875-.023438.375-.222656.347656-.441406l-25.9375-217.382813c-.023437-.203125-.195312-.351562-.394531-.351562zm0 0"/></svg>