<svg height="512pt" viewBox="-158 0 512 512" width="512pt" xmlns="http://www.w3.org/2000/svg"><path d="m120.570312 285.148438h-46.125v-262.085938c.003907-12.738281 10.328126-23.0625 23.0625-23.0625 12.738282 0 23.0625 10.324219 23.0625 23.0625zm0 0" fill="#b2693f"/><path d="m120.574219 23.058594v254.71875h-23.066407v-254.71875c0-6.367188-2.582031-12.128906-6.757812-16.304688-1.421875-1.421875-3.027344-2.65625-4.773438-3.664062 3.394532-1.964844 7.332032-3.08593775 11.53125-3.08593775 6.367188 0 12.140626 2.58203175 16.308594 6.74999975 4.175782 4.175782 6.757813 9.9375 6.757813 16.304688zm0 0" fill="#9e5632"/><path d="m147.265625 322.871094h-99.515625v-31.078125c0-7.742188 6.277344-14.015625 14.019531-14.015625h71.480469c7.742188 0 14.015625 6.273437 14.015625 14.015625zm0 0" fill="#fec608"/><path d="m123.917969 314.773438h-72.121094c-28.605469 0-51.796875 23.1875-51.796875 51.792968v135.410156c0 5.535157 4.488281 10.019532 10.019531 10.019532h31.078125c3.574219 0 6.898438-1.886719 8.667969-4.992188 3.003906-5.269531 7.292969-14.859375 9.613281-29.480468.628906-3.949219 6.191406-4.324219 7.328125-.488282 2.25 7.582032 4.394531 16.78125 4.808594 25.300782.265625 5.386718 4.617187 9.660156 10.011719 9.660156h31.960937c5.394531 0 9.746094-4.273438 10.011719-9.660156.414062-8.519532 2.558594-17.71875 4.808594-25.300782 1.136718-3.835937 6.699218-3.460937 7.328125.488282 2.320312 14.621093 6.609375 24.210937 9.613281 29.480468 1.769531 3.105469 5.09375 4.992188 8.667969 4.992188h31.074219c5.535156 0 10.023437-4.484375 10.023437-10.019532v-135.410156c0-28.605468-23.191406-51.792968-51.796875-51.792968zm0 0" fill="#d1956c"/><path d="m195.015625 366.570312v135.410157c0 5.535156-4.484375 10.019531-10.019531 10.019531h-31.078125c-.0625 0-.125 0-.1875-.011719 5.402343-.140625 14.765625-4.566406 14.765625-10.007812v-135.410157c0-28.609374-28.21875-51.796874-56.820313-51.796874h31.542969c28.609375-.003907 51.796875 23.1875 51.796875 51.796874zm0 0" fill="#b57756"/><path d="m0 401.574219v-35.007813c0-28.605468 23.191406-51.792968 51.796875-51.792968h91.421875c28.605469 0 51.796875 23.1875 51.796875 51.792968v35.007813zm0 0" fill="#ff4b4c"/><path d="m195.015625 366.570312v35h-195.015625v-24.90625h153.347656c8.859375 0 16.042969-7.183593 16.042969-16.046874v-18.964844c0-9.183594-9.175781-17.804688-13.375-25.285156 22.417969 5.6875 39 26.007812 39 50.203124zm0 0" fill="#fe2b23"/><path d="m147.269531 291.796875v22.976563h-19.277343v-22.976563c0-7.746094-6.277344-14.019531-14.023438-14.019531h19.28125c7.734375 0 14.019531 6.273437 14.019531 14.019531zm0 0" fill="#fca630"/></svg>