<svg viewBox="0 -10 512.00002 512" xmlns="http://www.w3.org/2000/svg"><path d="m454.910156 364.351562-39.109375-30.542968c-3.6875-2.878906-8.859375-2.886719-12.558593-.023438l-39.441407 30.542969c-2.5 1.9375-3.964843 4.921875-3.964843 8.085937v52.367188c0 5.648438 4.578124 10.230469 10.230468 10.230469h78.550782c5.648437 0 10.226562-4.582031 10.226562-10.230469v-52.367188c0-3.148437-1.449219-6.121093-3.933594-8.0625zm-16.519531 50.203126h-18.546875v-12.558594c0-5.648438-4.582031-10.226563-10.230469-10.226563-5.648437 0-10.226562 4.578125-10.226562 10.226563v12.558594h-19.09375v-37.125l29.183593-22.601563 28.914063 22.574219zm0 0"/><path d="m195.34375 71.933594h202.503906c5.648438 0 10.226563-4.582032 10.226563-10.226563 0-5.648437-4.578125-10.230469-10.226563-10.230469h-202.503906c-5.648438 0-10.230469 4.582032-10.230469 10.230469 0 5.644531 4.582031 10.226563 10.230469 10.226563zm0 0"/><path d="m52.261719 65.621094c.257812.613281.574219 1.207031.941406 1.757812.367187.5625.796875 1.085938 1.269531 1.554688.46875.46875.992188.898437 1.554688 1.277344.550781.371093 1.144531.6875 1.769531.941406.613281.257812 1.257813.449218 1.910156.582031.65625.132813 1.332031.195313 1.996094.195313s1.339844-.0625 1.992187-.195313c.65625-.128906 1.300782-.324219 1.914063-.582031.625-.253906 1.21875-.570313 1.769531-.941406.5625-.378907 1.085938-.808594 1.554688-1.277344s.898437-.992188 1.269531-1.554688c.367187-.550781.683594-1.144531.941406-1.757812.253907-.625.457031-1.257813.582031-1.914063.132813-.664062.203126-1.339843.203126-2.003906s-.070313-1.339844-.203126-1.996094c-.125-.652343-.328124-1.296875-.582031-1.910156-.257812-.625-.574219-1.21875-.941406-1.769531-.371094-.5625-.800781-1.085938-1.269531-1.554688-.46875-.472656-.992188-.902344-1.554688-1.269531-.550781-.367187-1.144531-.683594-1.769531-.941406-.613281-.253907-1.257813-.449219-1.914063-.582031-1.316406-.265626-2.667968-.265626-3.988281 0-.652343.132812-1.296875.328124-1.910156.582031-.625.257812-1.21875.574219-1.769531.941406-.5625.367187-1.085938.796875-1.554688 1.269531-.472656.46875-.902344.992188-1.269531 1.554688-.367187.550781-.683594 1.144531-.941406 1.769531-.253907.613281-.449219 1.257813-.582031 1.910156-.132813.65625-.203126 1.332031-.203126 1.996094s.070313 1.339844.203126 2.003906c.132812.65625.328124 1.289063.582031 1.914063zm0 0"/><path d="m93.171875 65.621094c.257813.613281.574219 1.207031.941406 1.757812.367188.5625.796875 1.085938 1.269531 1.554688.46875.46875.992188.898437 1.554688 1.277344.550781.371093 1.144531.6875 1.769531.941406.613281.257812 1.257813.449218 1.910157.582031.65625.132813 1.332031.195313 1.996093.195313.664063 0 1.339844-.0625 1.992188-.195313.65625-.128906 1.300781-.324219 1.914062-.582031.625-.253906 1.21875-.570313 1.769531-.941406.5625-.378907 1.085938-.808594 1.554688-1.277344s.898438-.992188 1.269531-1.554688c.367188-.550781.683594-1.144531.941407-1.757812.253906-.625.457031-1.257813.582031-1.914063.132812-.664062.203125-1.339843.203125-2.003906s-.070313-1.339844-.203125-1.996094c-.125-.652343-.328125-1.296875-.582031-1.910156-.257813-.625-.574219-1.21875-.941407-1.769531-.371093-.5625-.800781-1.085938-1.269531-1.554688-.46875-.472656-.992188-.902344-1.554688-1.269531-.550781-.367187-1.144531-.683594-1.769531-.941406-.613281-.253907-1.257812-.449219-1.914062-.582031-1.316407-.265626-2.667969-.265626-3.988281 0-.652344.132812-1.296876.328124-1.910157.582031-.625.257812-1.21875.574219-1.769531.941406-.5625.367187-1.085938.796875-1.554688 1.269531-.472656.46875-.902343.992188-1.269531 1.554688-.367187.550781-.683593 1.144531-.941406 1.769531-.253906.613281-.449219 1.257813-.582031 1.910156-.132813.65625-.203125 1.332031-.203125 1.996094s.070312 1.339844.203125 2.003906c.132812.65625.328125 1.289063.582031 1.914063zm0 0"/><path d="m134.082031 65.621094c.257813.613281.574219 1.207031.941407 1.757812.367187.5625.796874 1.085938 1.269531 1.554688.46875.46875.992187.898437 1.554687 1.277344.550782.371093 1.144532.6875 1.769532.941406.613281.257812 1.257812.449218 1.910156.582031.65625.132813 1.332031.195313 1.996094.195313.664062 0 1.339843-.0625 1.992187-.195313.65625-.128906 1.300781-.324219 1.914063-.582031.625-.253906 1.21875-.570313 1.769531-.941406.5625-.378907 1.085937-.808594 1.554687-1.277344s.898438-.992188 1.269532-1.554688c.367187-.550781.683593-1.144531.9375-1.757812.257812-.625.460937-1.257813.585937-1.914063.132813-.664062.203125-1.339843.203125-2.003906s-.070312-1.339844-.203125-1.996094c-.125-.652343-.328125-1.296875-.585937-1.910156-.253907-.625-.570313-1.21875-.9375-1.769531-.371094-.5625-.800782-1.085938-1.269532-1.554688-.46875-.472656-.992187-.902344-1.554687-1.269531-.550781-.367187-1.144531-.683594-1.769531-.941406-.613282-.253907-1.257813-.449219-1.914063-.582031-1.316406-.265626-2.667969-.265626-3.988281 0-.652344.132812-1.296875.328124-1.910156.582031-.625.257812-1.21875.574219-1.769532.941406-.5625.367187-1.085937.796875-1.554687 1.269531-.472657.46875-.902344.992188-1.269531 1.554688-.367188.550781-.683594 1.144531-.941407 1.769531-.253906.613281-.449219 1.257813-.582031 1.910156-.132812.65625-.203125 1.332031-.203125 1.996094s.070313 1.339844.203125 2.003906c.132812.65625.328125 1.289063.582031 1.914063zm0 0"/><path d="m255.34375 306.824219h-88.464844c-5.648437 0-10.226562 4.582031-10.226562 10.230469 0 5.644531 4.578125 10.226562 10.226562 10.226562h88.464844c5.648438 0 10.226562-4.582031 10.226562-10.226562 0-5.648438-4.578124-10.230469-10.226562-10.230469zm0 0"/><path d="m50.792969 327.28125h34.265625c5.648437 0 10.230468-4.582031 10.230468-10.226562 0-5.648438-4.582031-10.230469-10.230468-10.230469h-34.265625c-5.648438 0-10.226563 4.582031-10.226563 10.230469 0 5.644531 4.578125 10.226562 10.226563 10.226562zm0 0"/><path d="m255.34375 347.734375h-204.550781c-5.648438 0-10.226563 4.582031-10.226563 10.230469 0 5.644531 4.578125 10.226562 10.226563 10.226562h204.550781c5.648438 0 10.226562-4.582031 10.226562-10.226562 0-5.648438-4.578124-10.230469-10.226562-10.230469zm0 0"/><path d="m265.53125 152.609375c-.011719-.136719-.023438-.269531-.035156-.40625-.023438-.191406-.054688-.382813-.089844-.570313-.027344-.152343-.054688-.300781-.085938-.449218-.035156-.164063-.082031-.328125-.128906-.496094-.046875-.164062-.09375-.332031-.148437-.5-.046875-.136719-.097657-.277344-.152344-.414062-.070313-.1875-.140625-.367188-.222656-.546876-.054688-.121093-.113281-.238281-.171875-.359374-.09375-.1875-.195313-.375-.296875-.558594-.03125-.050782-.054688-.105469-.085938-.15625-.039062-.066406-.082031-.121094-.121093-.183594-.109376-.167969-.21875-.335938-.332032-.496094-.089844-.125-.183594-.25-.28125-.371094-.101562-.132812-.207031-.261718-.316406-.382812-.117188-.140625-.238281-.273438-.363281-.402344-.097657-.101562-.199219-.199218-.300781-.296875-.140626-.132812-.285157-.265625-.429688-.390625-.101562-.085937-.210938-.171875-.316406-.253906-.152344-.117188-.304688-.234375-.460938-.34375-.121094-.085938-.242187-.164062-.367187-.242188-.148438-.09375-.296875-.1875-.449219-.273437-.144531-.082031-.292969-.15625-.441406-.234375-.140625-.066406-.277344-.136719-.417969-.199219-.167969-.074219-.339844-.144531-.511719-.210937-.132812-.050782-.265625-.101563-.402344-.144532-.175781-.058593-.355468-.113281-.539062-.164062-.140625-.039062-.28125-.074219-.425781-.109375-.171875-.039063-.34375-.070313-.515625-.101563-.167969-.03125-.332032-.054687-.503906-.078124-.148438-.019532-.300782-.035157-.453126-.046876-.199218-.015624-.398437-.023437-.601562-.027343-.074219-.003907-.144531-.011719-.21875-.011719h-204.550781c-.085938 0-.167969.007812-.253907.011719-.179687.003906-.355468.015625-.53125.027343-.175781.011719-.351562.03125-.523437.054688-.144531.019531-.289063.039062-.429687.0625-.199219.035156-.394532.074219-.585938.117188-.121094.027343-.238281.058593-.355469.089843-.203125.058594-.40625.117188-.605469.183594-.113281.039063-.222656.082031-.332031.121094-.195312.074219-.386719.152343-.574219.234375-.121093.054687-.242187.113281-.359374.175781-.167969.082031-.335938.167969-.5.261719-.132813.078125-.265626.160156-.402344.242187-.136719.089844-.273438.175781-.410156.269531-.144532.101563-.285157.210938-.425782.320313-.117187.089844-.230468.179687-.34375.277344-.140625.117187-.273437.242187-.40625.371093-.109375.105469-.214844.207032-.320312.316407-.121094.125-.238282.253906-.351563.386719-.113281.128906-.222656.257812-.328125.390624-.09375.121094-.183594.242188-.273437.367188-.117188.164062-.226563.332031-.332031.5-.039063.0625-.085938.117188-.125.183594-.03125.050781-.054688.105468-.082032.15625-.105468.183594-.207031.371094-.300781.558594-.058594.121093-.117187.238281-.171875.359374-.078125.179688-.152344.359376-.222656.546876-.054688.136718-.105469.277343-.152344.414062-.054688.167969-.101562.332031-.148438.5-.046874.167969-.089843.332031-.128906.496094-.03125.148437-.058594.296875-.085937.449218-.03125.191407-.0625.378907-.085938.570313-.019531.136719-.027343.269531-.039062.40625-.015625.207031-.027344.414063-.03125.621094 0 .0625-.007813.121093-.007813.183593v122.730469c0 .0625.007813.121094.007813.183594.003906.203125.015625.410156.03125.617187.011719.136719.023437.273438.039062.40625.019531.191407.050781.382813.085938.574219.027343.148438.054687.296875.085937.445313.039063.167968.082032.332031.128906.496094.046876.167968.09375.335937.148438.5.046875.140624.097656.277343.152344.417968.070312.183594.144531.367188.222656.546875.054688.117188.113281.238281.171875.355469.09375.191406.195313.375.300781.558594.027344.050781.050782.105468.082032.15625.027343.050781.066406.089844.09375.136718.179687.289063.375.570313.585937.84375.050781.066407.097656.136719.152344.203126.246093.300781.507812.585937.785156.859374.09375.089844.195313.175782.289063.265626.199218.179687.402343.351562.617187.515624.113281.085938.226563.171876.34375.257813.25.175781.511719.34375.777344.5.070312.039063.132812.082031.203125.121094.34375.1875.703125.355469 1.070312.507812.078125.03125.15625.054688.234375.082031.292969.113282.59375.210938.902344.296876.109375.03125.214844.058593.324219.082031.285156.070312.578125.125.871094.167969.109374.019531.222656.039062.335937.050781.355469.042969.710937.066406 1.078125.070312.035156 0 .074219.007813.113281.007813.011719 0 .023438-.003906.03125-.003906h204.46875c.011719 0 .023438.003906.03125.003906.039063 0 .078125-.007813.117188-.007813.363281-.003906.722656-.027343 1.078125-.070312.109375-.011719.222656-.03125.332031-.050781.296875-.042969.585937-.097657.875-.167969.109375-.023438.214844-.050781.320313-.082031.3125-.085938.613281-.183594.910156-.296876.078125-.03125.152344-.054687.226562-.082031.371094-.152343.730469-.320312 1.078125-.511719.066407-.035156.125-.078124.191407-.113281.269531-.160156.53125-.328125.789062-.507812.117188-.082031.226562-.167969.339844-.253907.214844-.164062.417968-.339843.621094-.519531.09375-.089843.195312-.171875.285156-.261719.277344-.273437.542968-.558593.785156-.863281.054688-.0625.101562-.132812.152344-.203125.210937-.269531.40625-.550781.585937-.84375.03125-.046875.066407-.085937.09375-.132812.03125-.050782.054688-.105469.085938-.15625.101562-.183594.203125-.371094.296875-.5625.058594-.117188.117187-.234375.171875-.355469.082031-.179687.152343-.363281.222656-.546875.054687-.136719.109375-.277344.152344-.417969.054687-.164062.101562-.328125.148437-.5.046875-.164062.09375-.328125.128906-.496093.03125-.144532.058594-.296876.085938-.445313.035156-.191406.0625-.378906.089844-.570313.015625-.136718.023437-.273437.035156-.40625.015625-.207031.027344-.414062.03125-.621093 0-.0625.007812-.121094.007812-.183594v-122.730469c0-.0625-.007812-.121094-.007812-.183594-.003906-.203124-.015625-.410156-.03125-.617187zm-204.507812 18.867187 72.167968 43.300782-72.167968 43.300781zm26.695312-7.835937h130.699219l-65.347657 39.210937zm65.351562 63.066406 65.347657 39.207031h-130.699219zm19.878907-11.929687 72.167969-43.300782v86.601563zm0 0"/><path d="m450.347656 294.648438v-263.453126c0-17.199218-13.992187-31.195312-31.191406-31.195312h-387.960938c-17.203124 0-31.195312 13.996094-31.195312 31.195312v346.710938c0 17.199219 13.992188 31.195312 31.195312 31.195312h277.789063c9.5 46.777344 50.945313 82.09375 100.484375 82.09375 56.535156 0 102.53125-45.992187 102.53125-102.527343 0-42.015625-25.402344-78.199219-61.652344-94.019531zm-419.152344-274.195313h387.960938c5.921875 0 10.738281 4.820313 10.738281 10.742187v71.078126h-409.441406v-71.078126c0-5.921874 4.820313-10.742187 10.742187-10.742187zm-10.742187 357.453125v-255.175781h409.441406v165.449219c-6.605469-1.339844-13.433593-2.042969-20.425781-2.042969-.464844 0-.925781.011719-1.390625.015625v-132.738282c0-5.648437-4.578125-10.230468-10.226563-10.230468h-101.253906c-5.648437 0-10.226562 4.582031-10.226562 10.230468v203.863282c0 5.648437 4.578125 10.226562 10.226562 10.226562h12.542969c-1.441406 6.828125-2.199219 13.898438-2.203125 21.140625h-275.742188c-5.921874 0-10.742187-4.816406-10.742187-10.738281zm295.320313-30.855469h-8.949219v-183.410156h80.800781v124.84375c-32.164062 7.007813-58.738281 29.152344-71.851562 58.566406zm93.695312 123.691407c-45.257812 0-82.074219-36.820313-82.074219-82.074219 0-45.257813 36.816407-82.078125 82.074219-82.078125s82.078125 36.820312 82.078125 82.078125c0 45.253906-36.820313 82.074219-82.078125 82.074219zm0 0"/><path d="m117.125 322.738281c.367188.5625.796875 1.085938 1.269531 1.558594.46875.46875 1 .898437 1.554688 1.265625.5625.367188 1.15625.6875 1.769531.941406.613281.257813 1.257812.449219 1.910156.582032.667969.132812 1.332032.203124 2.007813.203124.664062 0 1.328125-.070312 1.992187-.203124.65625-.132813 1.300782-.324219 1.914063-.582032.613281-.253906 1.207031-.574218 1.769531-.941406.550781-.367188 1.082031-.796875 1.554688-1.265625.46875-.472656.886718-.996094 1.265624-1.558594.371094-.550781.6875-1.152343.941407-1.765625.257812-.617187.449219-1.257812.582031-1.914062s.195312-1.328125.195312-1.992188c0-.667968-.0625-1.339844-.195312-2.007812-.132812-.644532-.324219-1.289063-.582031-1.910156-.253907-.613282-.570313-1.207032-.941407-1.761719-.378906-.5625-.796874-1.082031-1.265624-1.554688-2.382813-2.382812-5.914063-3.464843-9.238282-2.800781-.652344.132812-1.296875.328125-1.910156.582031-.613281.253907-1.207031.574219-1.769531.941407-.554688.378906-1.085938.808593-1.554688 1.277343-.472656.472657-.902343.992188-1.269531 1.554688-.367188.554687-.683594 1.148437-.941406 1.761719-.253906.621093-.449219 1.265624-.582032 1.910156-.132812.667968-.195312 1.339844-.195312 2.007812 0 .664063.0625 1.335938.195312 1.992188.132813.65625.328126 1.300781.582032 1.914062.257812.613282.574218 1.214844.941406 1.765625zm0 0"/></svg>