<?xml version="1.0" encoding="iso-8859-1"?>
<!-- Generator: Adobe Illustrator 19.0.0, SVG Export Plug-In . SVG Version: 6.00 Build 0)  -->
<svg xmlns="http://www.w3.org/2000/svg" xmlns:xlink="http://www.w3.org/1999/xlink" version="1.1" id="Capa_1" x="0px" y="0px" viewBox="0 0 479.992 479.992" style="enable-background:new 0 0 479.992 479.992;" xml:space="preserve" width="512px" height="512px">
<g>
	<g>
		<path d="M269.678,149.3c6.609-7.274,10.286-16.74,10.32-26.568v-16c0-22.091-17.909-40-40-40c-22.091,0-40,17.909-40,40v16    c0.034,9.828,3.711,19.294,10.32,26.568c-15.759,5.718-26.271,20.668-26.32,37.432v32h16v-32c0-13.255,10.745-24,24-24h8v56h16    v-56h8c13.255,0,24,10.745,24,24v32h16v-32C295.949,169.968,285.437,155.018,269.678,149.3z M263.998,122.732    c0,13.255-10.745,24-24,24s-24-10.745-24-24v-16c0-13.255,10.745-24,24-24s24,10.745,24,24V122.732z" fill="#FFFFFF"/>
	</g>
</g>
<g>
	<g>
		<path d="M214.654,398.292l-14.656-21.96v-61.6c-0.026-22.08-17.92-39.974-40-40h-16v16h16c13.255,0,24,10.745,24,24v64    c0.003,1.58,0.47,3.124,1.344,4.44l7.712,11.56h-25.056v-80h-16v88c0,4.418,3.582,8,8,8h48c4.418,0.001,8.001-3.581,8.001-7.999    C215.999,401.153,215.531,399.607,214.654,398.292z" fill="#FFFFFF"/>
	</g>
</g>
<g>
	<g>
		<path d="M135.998,122.732v-16c0-22.091-17.909-40-40-40s-40,17.909-40,40v16c-0.001,10.702,4.303,20.954,11.944,28.448    c-14.605,6.752-24.863,20.364-27.328,36.264c-6.986-5.601-15.662-8.672-24.616-8.712h-8c-4.418,0.001-7.999,3.584-7.998,8.002    c0,0.331,0.021,0.661,0.062,0.99l13.936,111.504c1.535,12.052,10.976,21.569,23.016,23.2l-28.6,85.776l15.168,5.056l30.176-90.528    h66.24v88h16v-96c-0.026-22.08-17.92-39.974-40-40h-32c-4.418,0-8-3.582-8-8v-72c0-17.673,14.327-32,32-32v88h16V167.18    c9.867,5.672,15.964,16.171,16,27.552v72h16v-72c-0.012-14.974-7.027-29.081-18.96-38.128    C128.792,149.354,135.964,136.543,135.998,122.732z M63.998,290.732h32c10.134,0.042,19.15,6.445,22.528,16H40.622    c-5.46-0.009-10.064-4.071-10.752-9.488L17.062,194.732c12.838,0.57,22.949,11.15,22.936,24v48    C39.998,279.987,50.743,290.732,63.998,290.732z M119.998,122.732c0,13.255-10.745,24-24,24s-24-10.745-24-24v-16    c0-13.255,10.745-24,24-24s24,10.745,24,24V122.732z" fill="#FFFFFF"/>
	</g>
</g>
<g>
	<g>
		<polygon points="151.998,234.732 151.998,250.732 231.998,250.732 231.998,410.732 247.998,410.732 247.998,250.732     327.998,250.732 327.998,234.732   " fill="#FFFFFF"/>
	</g>
</g>
<g>
	<g>
		<path d="M295.998,378.732v-64c0-13.255,10.745-24,24-24h16v-16h-16c-22.08,0.026-39.974,17.92-40,40v61.6l-14.656,21.984    c-2.439,3.684-1.429,8.648,2.255,11.087c1.305,0.864,2.836,1.326,4.401,1.329h48c4.418,0,8-3.582,8-8v-88h-16v80h-25.056    l7.712-11.56C295.528,381.856,295.995,380.312,295.998,378.732z" fill="#FFFFFF"/>
	</g>
</g>
<g>
	<g>
		<path d="M465.998,299.196l13.936-111.504c0.53-4.386-2.596-8.372-6.982-8.902c-0.316-0.038-0.635-0.058-0.954-0.058h-8    c-8.954,0.04-17.63,3.111-24.616,8.712c-2.465-15.9-12.723-29.512-27.328-36.264c7.641-7.494,11.945-17.746,11.944-28.448v-16    c0-22.091-17.909-40-40-40c-22.091,0-40,17.909-40,40v16c0.034,13.811,7.205,26.622,18.96,33.872    c-11.933,9.047-18.948,23.154-18.96,38.128v72h16v-72c0.036-11.381,6.133-21.88,16-27.552v83.552h16v-88c17.673,0,32,14.327,32,32    v72c0,4.418-3.582,8-8,8h-32c-22.08,0.026-39.974,17.92-40,40v96h16v-88h66.24l30.176,90.528l15.2-5.056l-28.632-85.808    C455.021,320.766,464.463,311.248,465.998,299.196z M407.998,122.732c0,13.255-10.745,24-24,24s-24-10.745-24-24v-16    c0-13.255,10.745-24,24-24s24,10.745,24,24V122.732z M439.374,306.732H361.47c3.378-9.555,12.394-15.958,22.528-16h32    c13.255,0,24-10.745,24-24v-48c-0.013-12.85,10.098-23.43,22.936-24l-12.8,102.488    C449.456,302.649,444.845,306.726,439.374,306.732z" fill="#FFFFFF"/>
	</g>
</g>
<g>
</g>
<g>
</g>
<g>
</g>
<g>
</g>
<g>
</g>
<g>
</g>
<g>
</g>
<g>
</g>
<g>
</g>
<g>
</g>
<g>
</g>
<g>
</g>
<g>
</g>
<g>
</g>
<g>
</g>
</svg>
