<?xml version="1.0"?>
<svg xmlns="http://www.w3.org/2000/svg" height="512px" viewBox="0 0 464.00167 464" width="512px"><path d="m264 208h16v16h-16zm0 0" fill="#ff9b05"/><path d="m232 208h16v16h-16zm0 0" fill="#ff9b05"/><path d="m424 184h-400v64h400zm-352 40h-16v-16h16zm288 16h-272v-48h272zm32-16h-16v-16h16zm0 0" fill="#ff9b05"/><path d="m32 160h-32v304h448v-304zm408 8v288h-432v-288zm0 0" fill="#ff9b05"/><path d="m296 208h16v16h-16zm0 0" fill="#ff9b05"/><path d="m104 208h16v16h-16zm0 0" fill="#ff9b05"/><path d="m200 208h16v16h-16zm0 0" fill="#ff9b05"/><path d="m136 208h16v16h-16zm0 0" fill="#ff9b05"/><path d="m168 208h16v16h-16zm0 0" fill="#ff9b05"/><path d="m424 264h-400v176h400zm-322.800781 8h69.601562c4.417969 0 8 3.582031 8 8s-3.582031 8-8 8h-69.601562c-4.417969 0-8-3.582031-8-8s3.582031-8 8-8zm-29.121094 24h127.84375c4.417969 0 8 3.582031 8 8s-3.582031 8-8 8h-127.84375c-4.417969 0-8-3.582031-8-8s3.582031-8 8-8zm-12.398437 24h152.640624c4.417969 0 8 3.582031 8 8s-3.582031 8-8 8h-152.640624c-4.417969 0-8-3.582031-8-8s3.582031-8 8-8zm111.121093 112h-69.601562c-4.417969 0-8-3.582031-8-8s3.582031-8 8-8h69.601562c4.417969 0 8 3.582031 8 8s-3.582031 8-8 8zm29.121094-24h-127.84375c-4.417969 0-8-3.582031-8-8s3.582031-8 8-8h127.84375c4.417969 0 8 3.582031 8 8s-3.582031 8-8 8zm12.398437-24h-152.640624c-4.417969 0-8-3.582031-8-8s3.582031-8 8-8h152.640624c4.417969 0 8 3.582031 8 8s-3.582031 8-8 8zm3.679688-24h-160c-4.417969 0-8-3.582031-8-8s3.582031-8 8-8h160c4.417969 0 8 3.582031 8 8s-3.582031 8-8 8zm120 48c-30.929688 0-56-25.070312-56-56 0-30.925781 25.070312-56 56-56s56 25.074219 56 56c-.035156 30.914062-25.085938 55.964844-56 56zm0 0" fill="#ff9b05"/><path d="m328 208h16v16h-16zm0 0" fill="#ff9b05"/><path d="m336 312c-19 .023438-35.371094 13.390625-39.199219 32h39.199219c4.417969 0 8 3.582031 8 8s-3.582031 8-8 8h-39.199219c4.210938 20.625 23.683594 34.457031 44.542969 31.640625s35.96875-21.316406 34.558594-42.316406c-1.410156-21.003907-18.851563-37.320313-39.902344-37.324219zm0 0" fill="#ff9b05"/><path d="m463.574219 5.425781c-1.421875-4.179687-5.960938-6.417969-10.140625-5l-422.753906 143.574219h49.746093l378.140625-128.421875c2.011719-.683594 3.671875-2.136719 4.609375-4.039063.941407-1.90625 1.082031-4.105468.398438-6.113281zm0 0" fill="#ff9b05"/></svg>
