<?xml version="1.0" encoding="iso-8859-1"?>
<!-- Generator: Adobe Illustrator 19.0.0, SVG Export Plug-In . SVG Version: 6.00 Build 0)  -->
<svg xmlns="http://www.w3.org/2000/svg" xmlns:xlink="http://www.w3.org/1999/xlink" version="1.1" id="Capa_1" x="0px" y="0px" viewBox="0 0 469.333 469.333" style="enable-background:new 0 0 469.333 469.333;" xml:space="preserve" width="512px" height="512px">
<g>
	<g>
		<g>
			<path d="M327.461,5.593c-14.5-9.969-34.479-6.261-44.604,8.407l-6.449,9.747c-8.396,4.129-41.427,18.901-84.405,18.901     c-42.979,0-76.01-14.773-84.406-18.901l-6.552-9.903c-9.979-14.511-29.875-18.209-44.5-8.25     c-14.542,10.001-18.229,29.96-8.333,44.367l111.792,168.196v176.509c0,17.647,14.354,32.002,32,32.002s32-14.355,32-32.002     V218.156L335.711,50.095C345.69,35.553,342.003,15.593,327.461,5.593z M192.003,64c25.54,0,47.504-4.642,64.21-9.71     l-64.21,97.043l-64.21-97.043C144.499,59.358,166.461,64,192.003,64z M318.044,38.167L204.461,209.042     c-1.167,1.75-1.792,3.802-1.792,5.906v179.719c0,5.885-4.792,10.667-10.667,10.667s-10.667-4.781-10.667-10.667V214.948     c0-2.104-0.625-4.156-1.792-5.906L65.878,38.031c-3.333-4.844-2.104-11.5,2.729-14.812c1.854-1.281,4-1.885,6.083-1.885     c3.375,0,6.688,1.573,8.667,4.458l99.75,150.76c3.958,5.979,13.833,5.979,17.792,0l99.625-150.594     c3.354-4.833,10.042-6.073,14.854-2.76C320.232,26.542,321.461,33.187,318.044,38.167z" fill="#ff9b05"/>
			<path d="M384.003,362.667c0-23.531-19.146-42.667-42.667-42.667c-23.521,0-42.667,19.135-42.667,42.667     c0,0.361,0.081,0.711,0.09,1.07c-24.362,4.922-42.757,26.478-42.757,52.263c0,29.406,23.917,53.333,53.333,53.333     c21.344,0,39.655-12.676,48.173-30.822c7.302,5.845,16.436,9.488,26.494,9.488c23.521,0,42.667-19.135,42.667-42.667     S407.523,362.667,384.003,362.667z M309.336,448c-17.646,0-32-14.354-32-32c0-17.646,14.354-32,32-32c17.646,0,32,14.354,32,32     C341.336,433.646,326.982,448,309.336,448z M349.148,380.868c-7.49-8.479-17.473-14.694-28.953-17.078     c-0.021-0.384-0.193-0.737-0.193-1.124c0-11.76,9.563-21.333,21.333-21.333s21.333,9.573,21.333,21.333     c0,2.367-0.781,4.566-1.527,6.766C356.436,372.439,352.359,376.309,349.148,380.868z M384.003,426.667     c-11.771,0-21.333-9.573-21.333-21.333S372.232,384,384.003,384c11.771,0,21.333,9.573,21.333,21.333     S395.773,426.667,384.003,426.667z" fill="#ff9b05"/>
		</g>
	</g>
</g>
<g>
</g>
<g>
</g>
<g>
</g>
<g>
</g>
<g>
</g>
<g>
</g>
<g>
</g>
<g>
</g>
<g>
</g>
<g>
</g>
<g>
</g>
<g>
</g>
<g>
</g>
<g>
</g>
<g>
</g>
</svg>
