<?xml version="1.0"?>
<svg xmlns="http://www.w3.org/2000/svg" height="512px" viewBox="0 0 448 448.00015" width="512px"><path d="m109.273438 352-36.371094 84.847656c-1.058594 2.472656-.804688 5.3125.675781 7.558594 1.484375 2.246094 3.996094 3.597656 6.6875 3.59375h287.46875c2.691406.003906 5.203125-1.347656 6.6875-3.59375 1.480469-2.246094 1.734375-5.085938.675781-7.558594l-36.371094-84.847656zm0 0" fill="#ffa600"/><path d="m444.40625 73.601562c-2.238281-1.507812-5.09375-1.761718-7.566406-.671874l-84.839844 36.34375v229.453124l84.800781 36.363282c2.476563 1.078125 5.332031.835937 7.589844-.644532 2.257813-1.484374 3.617187-4.007812 3.609375-6.710937v-287.46875c.015625-2.6875-1.339844-5.199219-3.59375-6.664063zm0 0" fill="#ffa600"/><path d="m224 136c-48.601562 0-88 39.398438-88 88s39.398438 88 88 88 88-39.398438 88-88c-.058594-48.578125-39.421875-87.941406-88-88zm-56 88c0 4.417969-3.582031 8-8 8s-8-3.582031-8-8c.042969-39.746094 32.253906-71.957031 72-72 4.417969 0 8 3.582031 8 8s-3.582031 8-8 8c-30.914062.035156-55.964844 25.085938-56 56zm128 0c-.042969 39.746094-32.253906 71.957031-72 72-4.417969 0-8-3.582031-8-8s3.582031-8 8-8c30.914062-.035156 55.964844-25.085938 56-56 0-4.417969 3.582031-8 8-8s8 3.582031 8 8zm0 0" fill="#ffa600"/><path d="m112 112v224h224v-224zm112 216c-57.4375 0-104-46.5625-104-104s46.5625-104 104-104 104 46.5625 104 104c-.066406 57.410156-46.589844 103.933594-104 104zm0 0" fill="#ffa600"/><path d="m11.199219 375.089844 84.800781-36.363282v-229.453124l-84.800781-36.359376c-1.011719-.4375-2.097657-.664062-3.199219-.664062-4.417969 0-8 3.578125-8 8v287.484375c0 2.691406 1.351562 5.203125 3.597656 6.683594 2.25 1.480469 5.089844 1.734375 7.5625.671875zm0 0" fill="#ffa600"/><path d="m374.398438 3.601562c-1.460938-2.261718-3.972657-3.617187-6.664063-3.601562h-287.46875c-2.691406-.00390625-5.203125 1.347656-6.6875 3.59375-1.480469 2.246094-1.734375 5.085938-.675781 7.558594l36.371094 84.847656h229.453124l36.371094-84.847656c1.070313-2.472656.808594-5.316406-.699218-7.550782zm0 0" fill="#ffa600"/></svg>
