<svg height="450pt" viewBox="0 0 450 450.50087" width="450pt" xmlns="http://www.w3.org/2000/svg"><path d="m403.332031 70.027344c6.25-6.246094 6.25-16.378906 0-22.628906-6.246093-6.246094-16.378906-6.246094-22.628906 0-6.246094 6.25-6.246094 16.382812.003906 22.628906 6.328125 6.046875 16.292969 6.046875 22.625 0zm0 0"/><path d="m71.777344 26.714844c-23.324219-.058594-45.703125 9.207031-62.160156 25.738281l-5.238282 5.238281c30.820313 21.5625 67.542969 33.097656 105.160156 33.023438h125.96875l64-64zm0 0"/><path d="m72.257812 450.5c19.109376.058594 37.441407-7.546875 50.898438-21.113281l.328125-.328125 306.558594-306.476563c27.75-28.203125 27.566406-73.507812-.414063-101.484375-27.980468-27.972656-73.285156-28.152344-101.480468-.398437l-306.792969 306.875c-20.601563 20.585937-26.769531 51.5625-15.628907 78.472656 11.144532 26.910156 37.40625 44.457031 66.53125 44.453125zm297.136719-414.398438c12.65625-12.097656 32.589844-12.097656 45.25 0 12.5 12.496094 12.5 32.757813.003907 45.257813-12.496094 12.496094-32.761719 12.496094-45.257813 0-12.496094-12.5-12.496094-32.761719.003906-45.257813zm-336.734375 336.71875c-2.082031-2.007812-2.914062-4.984374-2.183594-7.78125.734376-2.796874 2.917969-4.980468 5.714844-5.710937 2.796875-.734375 5.769532.101563 7.78125 2.179687l16.964844 16.976563 16.976562-16.976563c3.140626-3.03125 8.128907-2.988281 11.214844.097657 3.085938 3.085937 3.128906 8.074219.097656 11.214843l-16.976562 16.976563 16.976562 16.96875c2.082032 2.007813 2.914063 4.980469 2.183594 7.777344-.734375 2.796875-2.917968 4.984375-5.714844 5.714843-2.796874.734376-5.773437-.101562-7.78125-2.179687l-16.976562-16.960937-16.964844 16.960937c-2.011718 2.078125-4.984375 2.914063-7.78125 2.179687-2.796875-.730468-4.980468-2.917968-5.714844-5.714843-.730468-2.796875.101563-5.769531 2.183594-7.777344l16.957032-16.96875zm0 0"/><path d="m448.019531 390.714844-7.847656-10.527344-11.023437 8.738281c-1.695313 1.34375-3.863282 1.941407-6.007813 1.664063-2.144531-.28125-4.085937-1.417969-5.378906-3.152344l-8.40625-11.265625-11.015625 8.710937c-1.695313 1.347657-3.859375 1.949219-6.003906 1.667969-2.148438-.277343-4.085938-1.414062-5.382813-3.144531l-8.414063-11.273438-11.023437 8.734376c-1.695313 1.34375-3.863281 1.945312-6.007813 1.664062-2.144531-.28125-4.085937-1.417969-5.375-3.152344l-8.417968-11.269531-11.03125 8.742187c-1.695313 1.34375-3.859375 1.941407-6 1.664063-2.144532-.277344-4.082032-1.414063-5.375-3.144531l-8.425782-11.277344-11.007812 8.734375c-1.695312 1.34375-3.859375 1.945313-6.003906 1.667969-2.144532-.277344-4.085938-1.414063-5.378906-3.148438l-8.425782-11.277344-11.046875 8.75c-1.695312 1.339844-3.859375 1.9375-6 1.65625s-4.074219-1.414062-5.367187-3.144531l-8.433594-11.289062-11.0625 8.753906c-1.695312 1.339844-3.855469 1.9375-5.996094 1.660156-2.140625-.28125-4.078125-1.414062-5.375-3.140625l-8.46875-11.3125-5.378906 4.25-70.476562 70.460938h299.558593zm0 0"/></svg>