<?xml version="1.0" encoding="iso-8859-1"?>
<!-- Generator: Adobe Illustrator 19.0.0, SVG Export Plug-In . SVG Version: 6.00 Build 0)  -->
<svg version="1.1" id="Layer_1" xmlns="http://www.w3.org/2000/svg" xmlns:xlink="http://www.w3.org/1999/xlink" x="0px" y="0px"
	 viewBox="0 0 503.838 503.838" style="enable-background:new 0 0 503.838 503.838;" xml:space="preserve">
<g>
	<path style="fill:#F0CE49;" d="M141.466,422.897c-13.338,13.338-13.338,34.935,0,48.273L14.755,489.269l18.099-126.712
		c13.338,13.338,34.935,13.338,48.273,0L141.466,422.897z"/>
	<path style="fill:#CEA217;" d="M8.719,503.838c-2.185,0-4.369-0.836-6.033-2.5c-3.337-3.337-3.337-8.73,0-12.066l48.273-48.273
		c3.328-3.337,8.73-3.337,12.066,0c3.328,3.328,3.328,8.73,0,12.066l-48.273,48.273C13.088,503.002,10.904,503.838,8.719,503.838"/>
	<path style="fill:#724530;" d="M460.684,5.968L81.13,362.559l60.339,60.339L498.051,43.336c7.612-9.916,7.518-26.231-0.589-36.77
		C489.731-0.987,469.183-2.156,460.684,5.968"/>
	<path style="fill:#542D1E;" d="M460.684,5.968L423.35,41.04l39.629,39.629l35.072-37.333c7.629-9.677,7.492-25.993-0.589-36.779
		C491.045-1.993,469.371-2.173,460.684,5.968"/>
</g>
<g>
</g>
<g>
</g>
<g>
</g>
<g>
</g>
<g>
</g>
<g>
</g>
<g>
</g>
<g>
</g>
<g>
</g>
<g>
</g>
<g>
</g>
<g>
</g>
<g>
</g>
<g>
</g>
<g>
</g>
</svg>
