<svg height="511pt" viewBox="-34 0 511 511.99989" width="511pt" xmlns="http://www.w3.org/2000/svg"><path d="m243.683594 330.554688-77.09375 77.101562c-14.886719 14.886719-33.695313 23.496094-53.097656 25.792969-26.511719 3.144531-54.140626-5.453125-74.480469-25.792969-35.234375-35.226562-35.234375-92.339844 0-127.578125l77.09375-77.101563 25.761719 25.765626zm0 0" fill="#464646"/><path d="m243.683594 330.554688-77.09375 77.101562c-14.886719 14.886719-33.695313 23.496094-53.097656 25.792969-10.617188-4.390625-20.570313-10.917969-29.207032-19.546875-35.226562-35.226563-35.226562-92.339844 0-127.578125l57.582032-57.582031zm0 0" fill="#5a5a5a"/><path d="m115.375 512h-105.464844c-5.933594 0-10.390625-5.421875-9.222656-11.242188l14.90625-74.605468c4.589844-22.929688 24.722656-39.4375 48.101562-39.4375 5.046876 0 9.941407.769531 14.5625 2.203125 6.308594 1.957031 12.09375 5.164062 17.058594 9.347656 8.597656 7.246094 14.710938 17.449219 16.730469 29.222656l12.59375 73.53125c.988281 5.734375-3.433594 10.980469-9.265625 10.980469zm0 0" fill="#828282"/><path d="m115.375 512h-76.320312c-5.933594 0-10.386719-5.421875-9.222657-11.242188l14.90625-74.605468c3.601563-17.976563 16.75-31.996094 33.519531-37.234375 6.308594 1.957031 12.09375 5.164062 17.058594 9.347656 8.597656 7.246094 14.710938 17.449219 16.730469 29.222656l12.59375 73.53125c.988281 5.734375-3.433594 10.980469-9.265625 10.980469zm0 0" fill="#aaa"/><path d="m79.738281 447.898438c0 9.53125-7.726562 17.257812-17.257812 17.257812s-17.253907-7.726562-17.253907-17.257812 7.722657-17.257813 17.253907-17.257813 17.257812 7.726563 17.257812 17.257813zm0 0" fill="#464646"/><path d="m442.355469 240.648438-193.550781 94.964843-113.246094-113.242187-24.441406-24.453125 92.394531-196.046875c.957031-2.042969 3.644531-2.511719 5.226562-.917969l234.480469 234.480469c1.582031 1.574218 1.132812 4.226562-.863281 5.214844zm0 0" fill="#fff68e"/><path d="m389.640625 181.855469-167.910156 126.683593-86.171875-86.167968 125.609375-168.984375zm0 0" fill="#fff04a"/><path d="m269.882812 350.257812c-.8125 1.273438-1.78125 2.480469-2.894531 3.59375-4.277343 4.277344-9.898437 6.410157-15.542969 6.410157-5.621093 0-11.261718-2.132813-15.527343-6.410157l-143.109375-143.109374c-8.535156-8.535157-8.535156-22.515626 0-31.058594 4.269531-4.269532 9.910156-6.402344 15.53125-6.402344 5.132812 0 10.261718 1.769531 14.355468 5.316406.40625.34375.789063.699219 1.175782 1.085938l143.117187 143.105468c7.421875 7.433594 8.390625 18.976563 2.894531 27.46875zm0 0" fill="#828282"/><path d="m269.882812 350.257812c-.40625-.339843-.792968-.707031-1.175781-1.089843l-143.109375-143.109375c-7.421875-7.421875-8.390625-18.953125-2.902344-27.460938.40625.34375.789063.699219 1.175782 1.085938l143.117187 143.105468c7.421875 7.433594 8.390625 18.976563 2.894531 27.46875zm0 0" fill="#aaa"/></svg>